<mxfile host="www.draw.io" modified="2020-05-28T01:59:20.884Z" agent="5.0 (X11; Linux x86_64) AppleWebKit/537.36 (KHTML, like Gecko) Chrome/80.0.3987.149 Safari/537.36" etag="R583HKpua9CvjgCot3BX" version="13.1.3" type="github">
  <diagram name="Page-1" id="5f0bae14-7c28-e335-631c-24af17079c00">
    <mxGraphModel dx="2258" dy="672" grid="1" gridSize="10" guides="1" tooltips="1" connect="1" arrows="1" fold="1" page="1" pageScale="1" pageWidth="1100" pageHeight="850" background="#ffffff" math="0" shadow="0">
      <root>
        <mxCell id="0" />
        <mxCell id="1" parent="0" />
        <mxCell id="2BbbxaQr6hZSvzHqME9C-2" value="&lt;font style=&quot;font-size: 24px&quot;&gt;Server&lt;/font&gt;" style="rounded=0;whiteSpace=wrap;html=1;" parent="1" vertex="1">
          <mxGeometry x="25" y="260" width="430" height="100" as="geometry" />
        </mxCell>
        <mxCell id="2BbbxaQr6hZSvzHqME9C-3" value="&lt;font style=&quot;font-size: 24px&quot;&gt;Client&lt;/font&gt;" style="rounded=0;whiteSpace=wrap;html=1;" parent="1" vertex="1">
          <mxGeometry x="385" y="590" width="260" height="70" as="geometry" />
        </mxCell>
        <mxCell id="2BbbxaQr6hZSvzHqME9C-6" value="&lt;font style=&quot;font-size: 24px&quot;&gt;COS&lt;/font&gt;" style="shape=dataStorage;whiteSpace=wrap;html=1;" parent="1" vertex="1">
          <mxGeometry x="745" y="250" width="220" height="110" as="geometry" />
        </mxCell>
        <mxCell id="2BbbxaQr6hZSvzHqME9C-18" value="" style="endArrow=classic;html=1;" parent="1" edge="1">
          <mxGeometry width="50" height="50" relative="1" as="geometry">
            <mxPoint x="545" y="309.5" as="sourcePoint" />
            <mxPoint x="745" y="309.5" as="targetPoint" />
            <Array as="points">
              <mxPoint x="685" y="309.5" />
            </Array>
          </mxGeometry>
        </mxCell>
        <mxCell id="2BbbxaQr6hZSvzHqME9C-30" value="&lt;span style=&quot;text-align: center&quot;&gt;&lt;font style=&quot;font-size: 18px&quot;&gt;1.请求文件操作&lt;/font&gt;&lt;/span&gt;" style="text;whiteSpace=wrap;html=1;" parent="1" vertex="1">
          <mxGeometry x="330" y="540" width="210" height="80" as="geometry" />
        </mxCell>
        <mxCell id="2BbbxaQr6hZSvzHqME9C-35" value="&lt;font style=&quot;font-size: 18px&quot;&gt;2.所有操作都经由&lt;br&gt;服务端转发给cos&lt;br&gt;&lt;/font&gt;" style="shape=note;whiteSpace=wrap;html=1;backgroundOutline=1;darkOpacity=0.05;" parent="1" vertex="1">
          <mxGeometry x="10" y="10" width="200" height="70" as="geometry" />
        </mxCell>
        <mxCell id="sp5xluREkhG6h_Tq_4LH-2" value="secretId" style="ellipse;shape=cloud;whiteSpace=wrap;html=1;" parent="1" vertex="1">
          <mxGeometry x="-10" y="200" width="120" height="80" as="geometry" />
        </mxCell>
        <mxCell id="sp5xluREkhG6h_Tq_4LH-4" value="cos-sdk" style="rounded=0;whiteSpace=wrap;html=1;" parent="1" vertex="1">
          <mxGeometry x="455" y="280" width="90" height="60" as="geometry" />
        </mxCell>
        <mxCell id="zxILmdE_aTLb1eIWgR9r-1" value="" style="endArrow=classic;html=1;exitX=0;exitY=0.75;exitDx=0;exitDy=0;" parent="1" source="2BbbxaQr6hZSvzHqME9C-6" edge="1">
          <mxGeometry width="50" height="50" relative="1" as="geometry">
            <mxPoint x="490" y="410" as="sourcePoint" />
            <mxPoint x="550" y="333" as="targetPoint" />
          </mxGeometry>
        </mxCell>
        <mxCell id="zxILmdE_aTLb1eIWgR9r-2" value="" style="endArrow=classic;html=1;exitX=0.387;exitY=-0.023;exitDx=0;exitDy=0;exitPerimeter=0;" parent="1" source="2BbbxaQr6hZSvzHqME9C-3" edge="1">
          <mxGeometry width="50" height="50" relative="1" as="geometry">
            <mxPoint x="490" y="410" as="sourcePoint" />
            <mxPoint x="340" y="370" as="targetPoint" />
          </mxGeometry>
        </mxCell>
        <mxCell id="zxILmdE_aTLb1eIWgR9r-3" value="&lt;span style=&quot;text-align: center&quot;&gt;&lt;font style=&quot;font-size: 18px&quot;&gt;2.转发client的请求&lt;/font&gt;&lt;/span&gt;" style="text;whiteSpace=wrap;html=1;" parent="1" vertex="1">
          <mxGeometry x="560" y="280" width="210" height="80" as="geometry" />
        </mxCell>
        <mxCell id="zxILmdE_aTLb1eIWgR9r-4" value="&lt;span style=&quot;text-align: center&quot;&gt;&lt;font style=&quot;font-size: 18px&quot;&gt;３.返回结果&lt;/font&gt;&lt;/span&gt;" style="text;whiteSpace=wrap;html=1;" parent="1" vertex="1">
          <mxGeometry x="645" y="330" width="210" height="80" as="geometry" />
        </mxCell>
        <mxCell id="zxILmdE_aTLb1eIWgR9r-5" value="" style="endArrow=classic;html=1;entryX=0.559;entryY=-0.057;entryDx=0;entryDy=0;entryPerimeter=0;" parent="1" target="2BbbxaQr6hZSvzHqME9C-3" edge="1">
          <mxGeometry width="50" height="50" relative="1" as="geometry">
            <mxPoint x="380" y="370" as="sourcePoint" />
            <mxPoint x="590" y="580" as="targetPoint" />
          </mxGeometry>
        </mxCell>
        <mxCell id="zxILmdE_aTLb1eIWgR9r-6" value="&lt;span style=&quot;text-align: center&quot;&gt;&lt;font style=&quot;font-size: 18px&quot;&gt;4.返回cos的结果&lt;/font&gt;&lt;/span&gt;" style="text;whiteSpace=wrap;html=1;" parent="1" vertex="1">
          <mxGeometry x="410" y="370" width="210" height="80" as="geometry" />
        </mxCell>
      </root>
    </mxGraphModel>
  </diagram>
</mxfile>
